General
Complete name                    : The Muppets[2011]BRrip[Ac3-5.1]-=[CaLvIn]=-.avi
IMDB Link                        : http://www.imdb.com/title/tt1204342
Format                           : AVI
Format/Info                      : Audio Video Interleave
File size                        : 698 MiB
Duration                         : 1h 42mn
Overall bit rate                 : 950 Kbps
Writing application              : VirtualDubMod 1.5.10.3 | www.virtualdub-fr.org || (build 2550/release)
Writing library                  : VirtualDubMod build 2550/release

Video
ID                               : 0
Format                           : MPEG-4 Visual
Format profile                   : Advanced Simple@L5
Format settings, BVOP            : 2
Format settings, QPel            : No
Format settings, GMC             : No warppoints
Format settings, Matrix          : Default (H.263)
Codec ID                         : XVID
Codec ID/Hint                    : XviD
Duration                         : 1h 42mn
Bit rate                         : 748 Kbps
Width                            : 720 pixels
Height                           : 400 pixels
Display aspect ratio             : 16:9
Frame rate                       : 23.976 fps
Color space                      : YUV
Chroma subsampling               : 4:2:0
Bit depth                        : 8 bits
Scan type                        : Progressive
Compression mode                 : Lossy
Bits/(Pixel*Frame)               : 0.108
Stream size                      : 550 MiB (79%)
Writing library                  : XviD 1.2.1 (UTC 2008-12-04)

Audio
ID                               : 1
Format                           : AC-3
Format/Info                      : Audio Coding 3
Mode extension                   : CM (complete main)
Codec ID                         : 2000
Duration                         : 1h 42mn
Bit rate mode                    : Constant
Bit rate                         : 192 Kbps
Channel(s)                       : 6 channels
Channel positions                : Front: L C R, Side: L R, LFE
Sampling rate                    : 48.0 KHz
Bit depth                        : 16 bits
Compression mode                 : Lossy
Stream size                      : 141 MiB (20%)
Alignment                        : Split accross interleaves
Interleave, duration             : 42 ms (1.00 video frame)
Interleave, preload duration     : 500 ms


Screens :-
 
http://img11.imageshack.us/img11/3489/21861574.png 
http://img716.imageshack.us/img716/8471/83124845.png 
http://img36.imageshack.us/img36/4186/47572055.png 
http://img585.imageshack.us/img585/4853/37765698.png 
http://img442.imageshack.us/img442/2235/77561239.png 
http://img813.imageshack.us/img813/1776/77055339.png 
http://img801.imageshack.us/img801/1247/96186052.png 
http://img826.imageshack.us/img826/1246/69153191.png 
http://img215.imageshack.us/img215/6182/99688785.png 
http://img825.imageshack.us/img825/1904/23305207.png
